<svg width="585" height="557" viewBox="0 0 585 557" fill="none" xmlns="http://www.w3.org/2000/svg">
<path d="M468.268 0.379456C462.32 1.18461 456.491 3.55857 451.395 7.52957L327.645 103.975C302.827 123.316 267.485 128.896 237.905 118.177L90.373 64.7157C72.7039 58.3131 53.2826 66.685 46.4669 84.4404C39.6512 102.196 48.3542 121.736 65.8974 128.476L252.114 200.016C281.581 211.336 314.862 206.078 339.388 186.204L494.377 60.611C508.978 48.7789 511.216 27.5016 499.248 12.721C491.393 3.02133 479.621 -1.15851 468.268 0.379456ZM544.152 96.3125C538.772 97.3077 533.557 99.6346 528.992 103.329L373.928 228.829C349.391 248.687 337.304 280.137 342.253 311.315L373.529 508.329C376.475 526.89 393.779 539.469 412.564 536.494C431.349 533.519 443.578 516.264 440.986 497.65L419.338 342.254C414.998 311.091 427.835 277.693 451.908 257.435L571.972 156.406C586.352 144.305 588.812 123.296 576.843 108.515C568.615 98.3542 555.987 94.1224 544.152 96.3125ZM28.0053 178.083C16.7306 180.133 6.77872 187.883 2.30572 199.535C-4.51019 217.29 4.32093 236.514 21.7371 243.576L167.134 302.521C196.293 314.344 218.792 342.162 224.3 373.139L251.768 527.635C255.057 546.139 272.017 558.77 290.802 555.795C309.586 552.82 322.159 535.514 319.224 516.951L288.071 319.912C283.142 288.733 261.947 262.541 232.472 251.238L46.2121 179.81C40.1802 177.497 33.911 177.01 28.0053 178.083Z" fill="white"/>
</svg>
